<svg viewBox="0 0 279.99999999999994 279.99999999999994" xmlns="http://www.w3.org/2000/svg" xmlns:xlink="http://www.w3.org/1999/xlink" overflow="visible" width="279.99999999999994px" height="279.99999999999994px"><defs><circle id="masteravataaardefault-with-backdrop-path-1" cx="140" cy="140" r="140"/><path d="M83,36.3476251 C83,52.6289957 105.161905,65.8276544 132.5,65.8276544 C159.838095,65.8276544 182,52.6289957 182,36.3476251 C182,34.9853134 181.844841,33.6445843 181.544472,32.3313638 C210.784239,41.4879251 232,68.792221 232,101.051724 L232,110 L32,110 L32,101.051724 C32,68.3970853 53.7386736,40.8197864 83.5337207,32.0021267 C83.1821692,33.4207025 83,34.871494 83,36.3476251 Z" id="masteravataaardefault-with-backdrop-path-3"/></defs><g id="Master/Avataaar/Default with Backdrop" stroke="none" stroke-width="1" fill="none" fill-rule="evenodd"><mask id="masteravataaardefault-with-backdrop-mask-2" fill="#fff"><use xlink:href="#masteravataaardefault-with-backdrop-path-1"/></mask><use id="Oval" fill="#b9eee9" xlink:href="#masteravataaardefault-with-backdrop-path-1"/><g id="Group" mask="url(#masteravataaardefault-with-backdrop-mask-2)"><g transform="translate(7.000000, 0.000000)"><path d="M133,36 C163.927946,36 189,61.072054 189,92 L189.000809,98.1660527 C194.675838,99.1185422 199,104.05429 199,110 L199,124 C199,130.052417 194.519235,135.058294 188.693975,135.881364 C186.627928,155.686472 174.237929,172.421678 157.001014,180.610469 L157,199 L161,199 C200.764502,199 233,231.235498 233,271 L233,280 L33,280 L33,271 C33,231.235498 65.235498,199 105,199 L109,199 L108.999984,180.610943 C91.7625487,172.422324 79.3721119,155.686854 77.3051107,135.88097 C71.480765,135.058294 67,130.052417 67,124 L67,110 C67,104.053942 71.3246685,99.1179645 77.0001873,98.1658855 L77,92 C77,61.072054 102.072054,36 133,36 Z" id="Body" fill="#d4a181" fill-rule="evenodd"/><path d="M108.998216,180.610103 C116.272713,184.066155 124.410519,186 133,186 C141.588785,186 149.725969,184.066469 157.000016,180.610943 L157.000353,185.94579 C150.441661,190.398372 142.524652,193 134,193 C124.589035,193 115.918635,189.829263 108.998807,184.497795 Z" id="shadow" fill-opacity=".24" fill="#000" fill-rule="evenodd"/><g id="Nose" fill="none" transform="translate(105.000000, 122.000000) scale(1 1)" fill-rule="evenodd"><g id="Nose/Wide" stroke="none" stroke-width="1" fill="none" fill-rule="evenodd"><path d="M13,6 C13,12.627417 16.8281211,18 28,18 C39.1718789,18 43,12.627417 43,6 C39.0361818,6 32.8972468,9 27.83815,9 C23.0794079,9 17.1013384,6 13,6 Z" id="Nose" fill-opacity=".16" fill="#000"/></g></g><g id="Clothing" fill="none" transform="translate(1.000000, 170.000000) scale(1 1)"><defs><path d="M156.001177,13.0710173 C174.10124,15.0965377 188,20.6637035 188,35.0769231 L187.994775,34.6445513 C213.853089,45.5674185 232,71.1642324 232,100.999485 L232,110 L32,110 L32,100.999485 C32,71.1638494 50.1473773,45.5667611 76.0062213,34.6441305 C76.2809798,20.5514284 90.0819496,15.075891 107.999825,13.0709052 L108,32 C108,45.254834 118.745166,56 132,56 C145.254834,56 156,45.254834 156,32 L156,32 Z" id="clothinghoodie-path-1"/></defs><g id="Clothing/Hoodie" stroke="none" stroke-width="1" fill="none" fill-rule="evenodd"><mask id="clothinghoodie-mask-2" fill="#fff"><use xlink:href="#clothinghoodie-path-1"/></mask><use id="Hoodie" fill="#e65ed4" xlink:href="#clothinghoodie-path-1"/><path d="M101.999618,61.7388852 L102,110 L95,110 L94.9990839,58.149718 C97.2029904,59.4596568 99.5461861,60.6605136 101.999618,61.7388852 Z M169.001367,58.1494501 L169,98.5 C169,100.432997 167.432997,102 165.5,102 C163.567003,102 162,100.432997 162,98.5 L162.001384,61.7384448 C164.454619,60.6601132 166.797629,59.4593148 169.001367,58.1494501 Z" id="Straps" fill="#F4F4F4" mask="url(#clothinghoodie-mask-2)"/><path d="M173.041065,12.7245804 C188.091243,15.5714792 198.5,21.2431784 198.5,32.3076923 C198.5,52.0200095 165.462319,68 132,68 C98.5376807,68 65.5,52.0200095 65.5,32.3076923 C65.5,21.2431784 75.908757,15.5714792 90.9589345,12.7245804 C81.8748056,16.0747223 76,21.706273 76,31.0769231 C76,51.4689754 103.821205,68 132,68 C160.178795,68 188,51.4689754 188,31.0769231 C188,21.9004995 182.366206,16.3097803 173.60124,12.9358572 Z" id="Shadow" fill-opacity=".16" fill="#000" mask="url(#clothinghoodie-mask-2)"/></g></g><g id="Mouth" fill="none" transform="translate(79.000000, 134.000000) scale(1 1)" fill-rule="evenodd"><g id="Mouth/Smile" stroke="none" stroke-width="1" fill="none" fill-rule="evenodd"><path d="M35.117844,15.1280772 C36.1757121,24.6198025 44.2259873,32 54,32 C63.8042055,32 71.8740075,24.574136 72.8917593,15.0400546 C72.9736685,14.272746 72.1167429,13 71.042767,13 C56.1487536,13 44.7379213,13 37.0868244,13 C36.0066168,13 35.0120058,14.1784435 35.117844,15.1280772 Z" id="Mouth" fill-opacity=".7" fill="#000"/><path d="M59,24 C61.9944261,24 64.7093962,25.1964934 66.6929035,27.1374734 C63.3281849,30.1611116 58.8788402,32 54,32 C49.1207895,32 44.6711395,30.1608324 41.3064872,27.1379343 C43.2906038,25.1964934 46.0055739,24 49,24 C50.8007033,24 52.5003486,24.4326806 54.0006412,25.199747 C55.5004036,24.4324891 57.1996952,24 59,24 Z" id="Path" fill-opacity=".7" fill="#FF4F6D"/><path d="M70,13 C70,15.7614237 67.7614237,18 65,18 L44,18 C41.2385763,18 39,15.7614237 39,13 L70,13 Z" id="Path" fill="#FFF"/><g id="Tongue" transform="translate(38.000000, 24.000000)"/></g></g><g id="Eyes" fill="none" transform="translate(77.000000, 90.000000) scale(1 1)" fill-rule="evenodd"><g id="Eyes/Happy" stroke="none" stroke-width="1" fill="none" fill-rule="evenodd"><path d="M16.1601674,22.4473116 C18.006676,18.648508 22.1644225,16 26.9975803,16 C31.8136766,16 35.9591217,18.629842 37.8153518,22.4071242 C38.3667605,23.5291977 37.5821037,24.4474817 36.790607,23.7670228 C34.3395063,21.6597833 30.8587163,20.3437884 26.9975803,20.3437884 C23.2572061,20.3437884 19.8737584,21.5787519 17.4375392,23.5716412 C16.5467928,24.3002944 15.6201012,23.5583844 16.1601674,22.4473116 Z" id="Squint" fill-opacity=".6" fill="#000"/><path d="M74.1601674,22.4473116 C76.006676,18.648508 80.1644225,16 84.9975803,16 C89.8136766,16 93.9591217,18.629842 95.8153518,22.4071242 C96.3667605,23.5291977 95.5821037,24.4474817 94.790607,23.7670228 C92.3395063,21.6597833 88.8587163,20.3437884 84.9975803,20.3437884 C81.2572061,20.3437884 77.8737584,21.5787519 75.4375392,23.5716412 C74.5467928,24.3002944 73.6201012,23.5583844 74.1601674,22.4473116 Z" id="Squint" fill-opacity=".6" fill="#000"/></g></g><g id="Eyebrow/Outline" fill="none" transform="translate(77.000000, 82.000000) scale(1 1)" fill-rule="evenodd"><g id="Eyebrow/Outline/Default" stroke="none" stroke-width="1" fill="none" fill-rule="evenodd"><g id="I-Browse" transform="translate(12.000000, 6.000000)" fill="#000" fill-opacity=".6" fill-rule="nonzero"><path d="M3.63024536,11.1585767 C7.54515501,5.64986673 18.2779197,2.56083721 27.5230268,4.83118046 C28.5957248,5.0946055 29.6788665,4.43856013 29.9422916,3.36586212 C30.2057166,2.2931641 29.5496712,1.21002236 28.4769732,0.94659732 C17.7403633,-1.69001789 5.31209962,1.88699832 0.369754639,8.84142326 C-0.270109626,9.74178291 -0.0589363917,10.9903811 0.84142326,11.6302454 C1.74178291,12.2701096 2.9903811,12.0589364 3.63024536,11.1585767 Z" id="Eyebrow"/><path d="M61.6302454,11.1585767 C65.545155,5.64986673 76.2779197,2.56083721 85.5230268,4.83118046 C86.5957248,5.0946055 87.6788665,4.43856013 87.9422916,3.36586212 C88.2057166,2.2931641 87.5496712,1.21002236 86.4769732,0.94659732 C75.7403633,-1.69001789 63.3120996,1.88699832 58.3697546,8.84142326 C57.7298904,9.74178291 57.9410636,10.9903811 58.8414233,11.6302454 C59.7417829,12.2701096 60.9903811,12.0589364 61.6302454,11.1585767 Z" id="Eyebrow" transform="translate(73.000154, 6.039198) scale(-1, 1) translate(-73.000154, -6.039198)"/></g></g></g><g id="Facial Hair" fill="none" transform="translate(50.000000, 72.000000) scale(1 1)" fill-rule="evenodd"><g id="Facial Hair/Blank" stroke="none" stroke-width="1" fill="none" fill-rule="evenodd" fill-opacity="0"/></g><g id="Hairstyle" fill="none" fill-rule="evenodd" transform="scale(1 1)"><g id="Hairstyle/Dreads 01" stroke="none" stroke-width="1" fill="none" fill-rule="evenodd"><path d="M122.317306,19.3731338 C126.499944,17.6471518 128.572378,22.5039387 132.554013,21.8844657 C135.443268,21.434843 136.223305,21.067662 138.830761,22.7115333 C141.361692,24.3070651 141.96306,23.1664535 144.828996,23.1436082 C146.853806,23.128378 148.093982,24.8202575 149.787729,24.9967295 C150.632467,25.085131 151.441078,24.2050888 152.347562,24.2603811 C155.58496,24.4567186 155.789576,28.6430444 158.361562,29.7955753 C160.711524,30.8487786 163.474332,29.3691289 165.806559,29.0953159 C171.497048,28.4275036 167.60015,33.7425217 167.760755,36.914713 C169.994451,37.4358517 172.261648,35.3509661 174.485163,35.7347015 C177.986623,36.3392753 176.664995,39.9680424 175.853429,42.4144804 C178.279589,42.3707762 184.612828,39.6776748 186.184725,43.1220237 C186.995306,44.8980006 185.106797,47.2689496 185.13767,49.0743937 C185.181023,51.615855 187.048513,53.7186196 187.709327,56.1240021 C188.601032,59.3710203 189.871834,68.0740038 187.636742,70.9565876 C186.890663,71.9188016 181.795829,69.217693 179.671174,68.0439722 C161.825581,58.1840558 158.361562,55.0486831 130.245707,55.4578453 C102.129853,55.8670074 82.8674779,69.0400225 81.7839818,70.3874406 C81.0301584,71.3248831 80.0677773,73.8279219 79.2764086,80.8005402 C78.48504,87.7731584 79.4952061,100.277789 76.6304859,100.262632 C74.1915094,100.249702 73.6608912,76.4770353 74.7137309,67.0463924 C74.8753757,65.5984852 75.4983655,63.0083957 75.0474223,61.7058802 C74.6532986,60.5682485 72.7253768,60.5705662 73.0331217,58.6750651 C73.3829065,56.5173393 75.5584694,57.5890837 76.5060085,56.5574014 C78.3005851,54.602966 75.5321945,54.1404306 75.0730403,52.4306721 C74.4880481,50.2522767 75.8534857,49.45944 77.374493,48.7719658 L78.1396512,48.4310821 C80.1060001,47.5437559 79.8504766,48.3231462 81.4463492,46.5849138 C79.3147968,45.0224912 78.543628,42.8939014 81.4624425,41.7519655 C82.7019616,41.2669159 85.9268789,41.9089031 86.8980654,41.1801698 C87.1512899,40.9901231 87.251463,39.9008308 87.4074703,39.6780059 C88.9583471,37.4593592 88.5757186,35.8532324 88.4183976,33.3624282 C88.2889936,31.3242265 88.3064008,29.4532263 90.7466834,29.2496048 C92.3750712,29.1138571 93.6993269,30.4441843 95.1582415,30.835866 C96.7767762,31.2705896 96.1688403,31.5877757 97.4369334,30.7150174 C99.6630755,29.1817309 98.1479982,26.1942888 99.913344,24.4120212 C102.335891,21.9662454 103.923881,25.5513084 105.868882,25.8218105 C110.09126,26.4101607 108.736132,22.1218586 111.235861,20.5504965 C114.223647,18.6738677 114.512672,22.8012592 116.378847,22.948264 C117.996068,23.0750722 120.907657,19.9545311 122.317306,19.3731338 Z M180.001547,71.3348066 C180.846064,70.2980597 181.666198,70.8995898 182.697184,71.3146953 C183.8124,71.7641482 186.6344,73.8180261 186.831676,73.928751 C188.588868,74.9173665 189.980206,84.8279256 190.047535,88.6176558 C190.08965,90.9562115 190.127358,99.8740101 187.654049,99.1031293 C186.901013,98.868423 185.751682,94.1472484 185.58821,91.3840965 C185.424737,88.6209446 183.855069,79.2200034 181.446757,74.8947261 C180.896491,73.9063366 179.320781,72.1708928 180.001547,71.3348066 Z" id="Dreads-With-Cut" fill="#4a312c"/></g></g><g id="Accesories" fill="none" transform="translate(63.000000, 85.000000) scale(1 1)" fill-rule="evenodd"><g id="Accesories/Blank" stroke="none" stroke-width="1" fill="none" fill-rule="evenodd" fill-opacity="0"/></g></g></g></g></svg>