<?xml version="1.0" encoding="UTF-8"?> <svg xmlns="http://www.w3.org/2000/svg" id="_Layer_" data-name="&lt;Layer&gt;" viewBox="0 0 296.08 260.13"><defs><style>.cls-1{fill:#f9624e;}.cls-2{fill:#1a9bdb;}.cls-3{fill:#00cca5;}.cls-4{fill:#ff971a;}.cls-5{fill:#ededed;}.cls-6{fill:#fff;}.cls-7{fill:#949494;}.cls-8{fill:#e0e0e0;}.cls-9{fill:#619b8a;}.cls-10{fill:#c18253;}.cls-11{fill:#403333;}.cls-12{fill:#965930;}.cls-13{fill:#4f4f4f;}</style></defs><path class="cls-1" d="M292.38,256.84l3.7-17.47L274.8,253.12Z"></path><path class="cls-2" d="M264.76,4.76l-12.24,7,6.91,12.11,12.22-6.94Z"></path><path class="cls-3" d="M15.05,250.16,5,245.13l-5,10,10,5Z"></path><path class="cls-4" d="M56.62,16.14,62.08,0,40.37,10.65Z"></path><path class="cls-5" d="M127.91,31.87V90.68a8.78,8.78,0,0,1-8.78,8.78H80.93a8.78,8.78,0,0,1-8.78-8.78V31.87Z"></path><path class="cls-6" d="M188.53,31.75v91.38H141a9.91,9.91,0,0,1-9.91-9.91V31.75Z"></path><polygon class="cls-7" points="200.77 67.36 199.64 71.07 178.71 64.67 157.67 88.44 139 100.89 127.65 96.03 121.74 93.5 113.12 80.78 112.78 80.28 111.4 78.25 110.56 77.01 92.98 51.07 72.15 51.07 72.15 47.19 95.04 47.19 113.23 74.04 113.33 74.19 114.95 76.57 115.55 77.46 124.31 90.39 127.91 91.93 138.6 96.5 155.1 85.49 177.45 60.24 200.77 67.36"></polygon><polygon class="cls-8" points="177.85 36.89 156.45 52.56 138.12 57.34 120.07 58.27 105.08 92.82 84.79 97.44 85.37 99.96 106.93 95.05 121.8 60.77 138.51 59.9 157.58 54.93 178.31 39.75 199.82 46.62 200.6 44.16 177.85 36.89"></polygon><polygon class="cls-8" points="193.72 55.3 191.71 58.61 178.18 50.34 158.34 64.87 135.81 90.82 127.91 80.99 120.79 72.13 115.55 77.46 113.77 79.27 112.78 80.28 108.73 84.41 105.59 87.6 72.15 57.48 72.15 52.26 105.43 82.24 110.56 77.01 113.03 74.5 113.33 74.19 118.08 69.36 121.08 66.3 127.91 74.8 135.92 84.78 155.69 62 177.98 45.68 193.72 55.3"></polygon><path class="cls-5" d="M240.49,31.87v81.47a9.91,9.91,0,0,1-9.9,9.91H188.53V31.87Z"></path><rect class="cls-8" x="213.34" y="41.65" width="22.64" height="7.48"></rect><rect class="cls-4" x="213.34" y="53.21" width="22.64" height="7.48"></rect><polygon class="cls-8" points="213.34 64.78 213.34 72.13 213.34 72.26 235.98 72.26 235.98 72.13 235.98 64.78 235.98 64.64 213.34 64.64 213.34 64.78"></polygon><rect class="cls-6" x="213.34" y="76.21" width="22.64" height="7.48"></rect><rect class="cls-8" x="213.34" y="87.78" width="22.64" height="7.48"></rect><rect class="cls-3" x="194.55" y="41.65" width="11.32" height="7.48"></rect><rect class="cls-4" x="194.55" y="53.21" width="11.32" height="7.48"></rect><polygon class="cls-2" points="194.55 64.78 194.55 72.13 194.55 72.26 205.87 72.26 205.87 72.13 205.87 64.78 205.87 64.64 194.55 64.64 194.55 64.78"></polygon><rect class="cls-1" x="194.55" y="76.21" width="11.32" height="7.48"></rect><rect class="cls-9" x="194.55" y="87.78" width="11.32" height="7.48"></rect><path class="cls-4" d="M152,179.08c-1-.35-49.14,20.3-61.76,25.64s-16.95,7.36-16.95,7.36L51.85,163.53s28.6-12.35,46.46-20.12l1.72-.75,6.58-2.87a151.4,151.4,0,0,1,30.79-9.3S152.94,179.42,152,179.08Z"></path><circle class="cls-4" cx="70.31" cy="184.49" r="27.93"></circle><circle class="cls-4" cx="140.7" cy="158.21" r="27.93" transform="translate(-70.66 145.83) rotate(-45)"></circle><path class="cls-4" d="M258.62,180.61l-8.08,54.27H129.76l-2.95-70.8,9.53-33.46c2.78-.36,6.63-.69,11.56-.92a39.23,39.23,0,0,0,2.55,6.94c4.1,8.51,10.83,13.84,19.45,15.42A55.32,55.32,0,0,0,180,153a44.09,44.09,0,0,0,27.71-9.37,46.2,46.2,0,0,0,10.12-11,95.81,95.81,0,0,1,20.94,5.51,27.78,27.78,0,0,1,6.15,3.22Z"></path><path class="cls-4" d="M262.08,167.13a27.93,27.93,0,1,1-55.86,0c0-15.43,9.44-30.18,24.87-30.18S262.08,151.7,262.08,167.13Z"></path><rect class="cls-4" x="144.04" y="196.6" width="97.82" height="45.15"></rect><path class="cls-4" d="M270.48,206c-.26-4.3-4.22-24.45-5-29A96.84,96.84,0,0,0,260,157.15L215.08,174s2.34,11.93,4.82,24.14A27.93,27.93,0,0,0,243,241.75c8.82,0,16.93-.36,24.18-11C272.94,222.3,271,214,270.48,206Z"></path><path class="cls-10" d="M201,206.06c0,3.07-1.73,5.5-5,5.69a9.61,9.61,0,0,1-2.82-.3l-.32.13-6,2.4c-1,.39-2,.8-3,1.18a5.13,5.13,0,0,1-3,.43,3.62,3.62,0,0,1-2.6-3.65,5.28,5.28,0,0,1,1.06-3c-1.84,1.48-3.78,3.24-6.1,3a4.15,4.15,0,0,1-2.71-1.29,4.87,4.87,0,0,1-1.13-3.45A6.74,6.74,0,0,1,170,205c-1.36.65-2.8.84-4-.35a5.08,5.08,0,0,1-1.35-3.4,8,8,0,0,1,1-4,19.33,19.33,0,0,1,4.74-5.8c8.4-7.12,17.45-6.69,23.47,3.35C195.21,197.19,201,203.51,201,206.06Z"></path><path class="cls-10" d="M228.29,200.83q-1.22,9.45-2.64,18.85-1.53,10-3.32,20c-1.39-.26-2.83-.56-4.3-.9l-.54-.13A131.24,131.24,0,0,1,189,228.5S194,200.1,194,201.13c0,.55,13.23,1.34,29.79.09C225.29,201.11,226.78,201,228.29,200.83Z"></path><path class="cls-10" d="M204.25,222.05a13.59,13.59,0,0,1-9.57,5.39c-4.45.59-9.19.81-13.16-1.08-4.34-2.06-8.86-6.22-13.3-8.06-2.18-.91-3.65-1.86-6-2.09s-4.84.31-7-.79c-1.86-1-3.17-3.38-1.85-5.3a7.62,7.62,0,0,1,2.43-2.55,20.39,20.39,0,0,1,3.54-1,33,33,0,0,1,12.85-.69c.27-.42.56-.82.86-1.2a16.76,16.76,0,0,1,10.11-5.92,17.4,17.4,0,0,1,3.37-.26,10.82,10.82,0,0,1-2.85-1.3,42.71,42.71,0,0,1-4.32-3.51,13.87,13.87,0,0,0-4.24-2.58,13.22,13.22,0,0,0-9.51.15c-1.59.66-3,1.7-4.7,2.11a4.14,4.14,0,0,1-4.45-1.43,5,5,0,0,1-.71-4.34,8,8,0,0,1,2.89-3.91,17.09,17.09,0,0,1,9.05-3.4,23.31,23.31,0,0,1,9.55,1.28,28.71,28.71,0,0,1,8.7,5,41.94,41.94,0,0,1,4.48,4.26,51.8,51.8,0,0,1,4.33,5.27c0,.22.52.74.65.92l.76,1.09c1.22,1.75,2.29,3.62,3.55,5.36,1.78,2.47,4,4.92,5.15,7.77a12.64,12.64,0,0,1,.71,7.93A9.45,9.45,0,0,1,204.25,222.05Z"></path><path class="cls-11" d="M177.77,78.54a13.45,13.45,0,0,1-1.22,4.95A19.16,19.16,0,0,1,170,91a29.16,29.16,0,0,1-9.22,4.62,13.44,13.44,0,0,1-10-.85,9,9,0,0,1-4.71-7.12,7.58,7.58,0,0,1,1-4.18,6.32,6.32,0,0,1,1.35-1.61,9.11,9.11,0,0,1,1.77-1.12c.53-.29,1.08-.61,1.12-1.27,0-.81-.25-1.62-.26-2.43a7.26,7.26,0,0,1,5.3-7.13,7.12,7.12,0,0,1,2.38-.27,6.3,6.3,0,0,0,2.41,0c1-.31,1.8-1.35,2.61-2a4.06,4.06,0,0,1,3.7-1.2,9,9,0,0,1,2.27,1.05c.77.44,1.57.85,2.38,1.22a31.1,31.1,0,0,0,5,1.79.74.74,0,0,1-.39,1.42l-.8-.23a18.7,18.7,0,0,1,.83,1.83A12.62,12.62,0,0,1,177.77,78.54Z"></path><path class="cls-11" d="M205.87,97.34a24,24,0,1,1-47.93,0c0-13.24,2.11-29.23,15.29-28.07C195.18,71.21,205.87,84.1,205.87,97.34Z"></path><path class="cls-10" d="M197.09,135.55l-26.9,7.83-11.12-23,24.66-14.85,2.8,6.28-2.87,1.61a.75.75,0,0,0-.47,0,.77.77,0,0,0-.55.94,61.47,61.47,0,0,0,5,9.48.84.84,0,0,0,.89.35l3.11-1,.68,1.53Z"></path><path class="cls-11" d="M191.59,123.21l-3.11,1a.84.84,0,0,1-.89-.35,61.47,61.47,0,0,1-5-9.48.77.77,0,0,1,.55-.94.75.75,0,0,1,.47,0l2.87-1.61.34.78Z"></path><path class="cls-10" d="M182.34,107.77a17.55,17.55,0,1,1-17.55-17.55A17.55,17.55,0,0,1,182.34,107.77Z"></path><path class="cls-10" d="M164.79,75.83a24.54,24.54,0,0,0-12,13.7c-1.63,4.72-4.61,12.6-4.61,12.6l33.53,9.93s12.7-14.37,12.85-15.38c.07-.49-3.36-10.66-15.63-16.09S164.79,75.83,164.79,75.83Z"></path><circle class="cls-10" cx="184.48" cy="112.06" r="6.78" transform="translate(44.32 276.21) rotate(-80.78)"></circle><path class="cls-10" d="M210.21,131.55a40.08,40.08,0,0,1-7,6.93c-8.89,6.87-19.7,9.2-32.13,6.92-6.44-1.19-11.31-5.07-14.49-11.53a31.46,31.46,0,0,1-1.75-4.41c11.14-.25,26.12,0,44.83,1.16C203.5,130.86,207,131.18,210.21,131.55Z"></path><path class="cls-11" d="M167.57,95.23a1.5,1.5,0,0,0-1.83.39,1.75,1.75,0,0,0-.34.59,1.92,1.92,0,0,0-.11.54,2.36,2.36,0,0,0,0,.53,1.85,1.85,0,0,0,.09.84.8.8,0,0,0,.37.48.84.84,0,0,0,.62.08,3.49,3.49,0,0,0,1.36-.68,1.8,1.8,0,0,0,.62-1.41A1.59,1.59,0,0,0,167.57,95.23Z"></path><path class="cls-11" d="M157,93.87a1.21,1.21,0,0,0-.21-.59,1.25,1.25,0,0,0-.69-.52,1.16,1.16,0,0,0-.8,0,1.39,1.39,0,0,0-.59.51,1.58,1.58,0,0,0-.22.54,2.63,2.63,0,0,0-.05.49,1.6,1.6,0,0,0,0,.84.84.84,0,0,0,.37.48.75.75,0,0,0,.62.08,3.28,3.28,0,0,0,1.08-.6,1.6,1.6,0,0,0,.41-.65,1.51,1.51,0,0,0,.06-.36A1.22,1.22,0,0,0,157,93.87Z"></path><path class="cls-11" d="M175.11,93.16a9.68,9.68,0,0,0-3.64-4.75c-1.23-.71-5.7-1.31-4.79,1.29.4,1.15,2.41,1.29,3.39,1.75a12.74,12.74,0,0,1,3.77,2.69.81.81,0,0,0,1.06.06A.82.82,0,0,0,175.11,93.16Z"></path><path class="cls-12" d="M159.37,88.67a.81.81,0,0,0-1.56.43,6.08,6.08,0,0,1-1.18,5.57c-.74.86-1.77,1.32-2.57,2.11a2.65,2.65,0,0,0-.57,3.34.83.83,0,0,0,1.11.29.82.82,0,0,0,.29-1.11c-.63-.85.63-1.67,1.22-2.08a8,8,0,0,0,2.34-2.32A7.69,7.69,0,0,0,159.37,88.67Z"></path><path class="cls-11" d="M158.15,86a5.12,5.12,0,0,0-2.56-1.18,5,5,0,0,0-3.22.55.8.8,0,0,0,.74,1.42,9.2,9.2,0,0,1,2.8,1.23c.48.3.78.63,1.27,1a1.32,1.32,0,0,0,1.89-.27C159.67,87.71,158.86,86.57,158.15,86Z"></path><path class="cls-12" d="M159.82,106.07a.8.8,0,0,0-1-.56,9,9,0,0,1-5.94.36.81.81,0,0,0-.43,1.56,10.37,10.37,0,0,0,6.8-.37A.82.82,0,0,0,159.82,106.07Z"></path><path class="cls-12" d="M187.53,110.12,181,111.84a.81.81,0,0,0-.19,1.47l5.31,3.5a.82.82,0,0,0,1.11-.29.83.83,0,0,0-.29-1.11l-3.77-2.47,4.78-1.27A.8.8,0,0,0,187.53,110.12Z"></path><path class="cls-11" d="M196.79,95.65a9.42,9.42,0,0,1-1.43,3c-1.19,1.77-3.39,3-4.88,4.53a34.93,34.93,0,0,1-9.49,7.31c-.44.24-.76.68-.93.22a12,12,0,0,1-1-4.85,5.31,5.31,0,0,1,1.39-3.35,4.43,4.43,0,0,1,1.47-1c.4-.18,1-.36,1.15-.82a2.65,2.65,0,0,0,.08-.93,8.26,8.26,0,0,1,.08-1,5.05,5.05,0,0,1,.59-1.67,5.17,5.17,0,0,1,.83-1.12,4.71,4.71,0,0,1-2.37-1.67,4.62,4.62,0,0,1-.9-2.31,9,9,0,0,1-1,0,7.33,7.33,0,0,1-6-4,6.46,6.46,0,0,1-.54-3.79,10.36,10.36,0,0,1-1.67-.14c-2.68-.45-5.26-2.25-5.84-5a4.82,4.82,0,0,1,.67-3.77,6,6,0,0,1,.39-.49.72.72,0,0,1,.32-.44c.2-.13.4-.24.61-.35a4.34,4.34,0,0,1,1.45-.61,11.89,11.89,0,0,1,5.5-.16A24.43,24.43,0,0,1,181,75.13a30.32,30.32,0,0,1,9.4,6.78A29.73,29.73,0,0,1,194,86.56a21.11,21.11,0,0,1,2.69,5.65A6.91,6.91,0,0,1,196.79,95.65Z"></path><path class="cls-11" d="M204.42,82.72a3.43,3.43,0,0,0-1.62-.37,4.39,4.39,0,0,0,.06-2.16.74.74,0,0,0-1.23-.33,5,5,0,0,0-1.18,3.54l0,0a.74.74,0,0,0-.69.73.75.75,0,0,0,.74.74,10.76,10.76,0,0,0,3.95-.92A.74.74,0,0,0,204.42,82.72Z"></path><path class="cls-6" d="M195.82,211a38.23,38.23,0,0,0-8.39,1.84c-1.33.46-2.6,1-3.91,1.55-1,.4-2.35.86-3.44.37a2.52,2.52,0,0,1-1.35-2.17,4.48,4.48,0,0,1,1-3,15.76,15.76,0,0,1,6-4.38,19,19,0,0,1,8.27-1.68.81.81,0,0,0,0-1.61,20.51,20.51,0,0,0-8.22,1.52,18.57,18.57,0,0,0-6.93,4.69,6.81,6.81,0,0,0-1.75,3.61,4.63,4.63,0,0,0,1,3.45,4,4,0,0,0,3.61,1.32,15.25,15.25,0,0,0,4.06-1.34,36.52,36.52,0,0,1,10.06-2.58.82.82,0,0,0,.81-.8A.81.81,0,0,0,195.82,211Z"></path><path class="cls-6" d="M191.93,195.25a27.69,27.69,0,0,0-15.8,3.75,28.07,28.07,0,0,0-3.36,2.35,14.88,14.88,0,0,0-2.93,3c-1.52,2.18-1.85,5.53.46,7.32a5.53,5.53,0,0,0,4.1,1,9.85,9.85,0,0,0,4-1.47c.91-.5.83-2.29-.09-1.79-1.93,1.06-4.48,2.47-6.68,1.25a2.86,2.86,0,0,1-1.45-2.46,5.13,5.13,0,0,1,1.12-3.2,14.32,14.32,0,0,1,2.61-2.55,24.34,24.34,0,0,1,3-2,26.58,26.58,0,0,1,6.75-2.79,25.9,25.9,0,0,1,8.23-.75.81.81,0,1,0,0-1.61Z"></path><path class="cls-6" d="M199.69,201.15l-10.05-12.33a.4.4,0,0,0-.16-.13c-1.52-1.72-4-2.38-6.29-2.43a18.35,18.35,0,0,0-8.41,2,20.29,20.29,0,0,0-6.69,5.3,19.3,19.3,0,0,0-2.38,3.68,13.86,13.86,0,0,0-1.47,4.73,4.73,4.73,0,0,0,2.21,4.67,3.17,3.17,0,0,0,4.26-1.26c.18-.39.44-.87,0-1.11s-.64,0-.82.37c-.42.91-2.22,1-3,.39a3.52,3.52,0,0,1-1-3.45,15.44,15.44,0,0,1,3.4-7,18.24,18.24,0,0,1,12.92-6.68c2.44-.11,5.52.4,6.67,2.85a.72.72,0,0,0,.54.38l9.11,11.18a.81.81,0,0,0,1.14,0A.83.83,0,0,0,199.69,201.15Z"></path><path class="cls-6" d="M185.12,195.59a5.44,5.44,0,0,0-5.17,1.55.81.81,0,0,0,1.14,1.14,5,5,0,0,1,.41-.39l.05,0,0,0,.25-.16a4.82,4.82,0,0,1,.5-.27l.07,0a2.53,2.53,0,0,1,.33-.11,3,3,0,0,1,.52-.13l.14,0,.27,0h.57l.13,0a2.44,2.44,0,0,1,.31.06.82.82,0,0,0,1-.57A.81.81,0,0,0,185.12,195.59Z"></path><path class="cls-6" d="M187.79,187.4a22.69,22.69,0,0,0-9.29-6.59,22.51,22.51,0,0,0-17.77.91,13.3,13.3,0,0,0-4.63,3.43,6,6,0,0,0-1.35,5,4.28,4.28,0,0,0,3.51,3.46,8.48,8.48,0,0,0,3.36-.24c1.24-.29,2.46-.63,3.68-.95l7.81-2c1-.26,2.79-2,1.76-1.88-2.78.4-6.46,1.44-8.59,2l-3.28.86c-.93.24-1.85.51-2.79.66-1.48.23-3.07-.07-3.7-1.58a4.18,4.18,0,0,1,.56-3.92,10.59,10.59,0,0,1,4-3.16,21.24,21.24,0,0,1,5.28-1.9,20.64,20.64,0,0,1,10.83.58,21,21,0,0,1,9.49,6.49.81.81,0,0,0,1.14,0A.82.82,0,0,0,187.79,187.4Z"></path><path class="cls-6" d="M197.25,227.37a7.38,7.38,0,0,1-.72.41c-4.15,2.22-9.27,1.68-13.51-.06-4.45-1.83-8.27-4.77-12.43-7.13a27.77,27.77,0,0,0-6.35-2.76,15.88,15.88,0,0,0-3.43-.58c-1.23-.07-2.47,0-3.7-.14-2.18-.23-4.44-1.16-5.27-3.36a5.65,5.65,0,0,1,1.21-5.52,8.88,8.88,0,0,1,5.78-2.61c2.53-.3,5.09-.31,7.63-.42,1,0,1.28,1.7.25,1.74a72,72,0,0,0-8.18.34c-2,.32-4.13,1.2-5,3.19a3.26,3.26,0,0,0,1,4.16c1.86,1.22,4.2.89,6.3,1,4.52.25,8.66,2.33,12.45,4.66s7.41,5,11.63,6.41a14.94,14.94,0,0,0,9.13.38,10.39,10.39,0,0,0,2.14-.94,3.36,3.36,0,0,0,1.22,0A.81.81,0,0,1,197.25,227.37Z"></path><path class="cls-6" d="M198.2,227.54a4.34,4.34,0,0,1-1.67.24,5.7,5.7,0,0,1-2.28-.58l-.23-.12c-2.21-1.17-3.36-3.49-4.26-5.74s-1.59-4.58-3.49-6a.82.82,0,0,1-.29-1.11.81.81,0,0,1,1.1-.29,9.1,9.1,0,0,1,2.57,3.08c1.14,2.11,1.66,4.51,3,6.54a5.51,5.51,0,0,0,3.55,2.59,3.36,3.36,0,0,0,1.22,0l.39-.12a.82.82,0,0,1,1,.56A.84.84,0,0,1,198.2,227.54Z"></path><path class="cls-4" d="M250.07,200.11,243,241.75a104.35,104.35,0,0,1-17.92-1.53l-1.18-.2-1.58-.3q1.8-10,3.32-20,1.44-9.41,2.64-18.85l1.61,0,1.87-.06C241.88,200.41,250.07,200.11,250.07,200.11Z"></path><path class="cls-6" d="M231.77,200.73l-6.68,39.49-1.18-.2-1.58-.3c-1.39-.26-2.83-.56-4.3-.9l-.54-.13,6.34-37.47c1.46-.11,2.95-.24,4.46-.39l1.61,0Z"></path><path class="cls-6" d="M249.15,198.32a.83.83,0,0,0-1-.57q-9.43,1.37-18.94,2.17t-19,1.06c-3.59.1-7.18.13-10.76.11a.81.81,0,0,0,0,1.61q9.6.06,19.2-.44t19.14-1.56q5.41-.62,10.81-1.39A.82.82,0,0,0,249.15,198.32Z"></path><path class="cls-6" d="M225.64,200.87a138.9,138.9,0,0,0-3.73-16.64q-.66-2.31-1.41-4.6c-.32-1-1.88-.56-1.56.43a140,140,0,0,1,4.3,16.51c.31,1.57.59,3.15.85,4.73a.8.8,0,0,0,1,.56A.82.82,0,0,0,225.64,200.87Z"></path><path class="cls-10" d="M103.34,110.52a10,10,0,0,1-.41,1.11l0,.36a24.13,24.13,0,0,1-1.44,6.42c-.28,2.47-.77,5.35-1.14,8.61-.64,5.56-2.59,20.49-4.23,34.76L54.24,150c5.5-13.13,11.81-27.82,14.95-35.1-3.5-8.58-3.86-18.07-6.79-26.85A.88.88,0,0,1,63,87a.85.85,0,0,1,1,.61c.09.25.17.52.25.77l.15.08a8.13,8.13,0,0,0,2.69,1.32c4.47,1.25,9-.65,13.46-1.15.32,0,.64-.06,1-.08-.14-1-.24-2.1-.33-3.16a.75.75,0,0,1,.34-.65,23.62,23.62,0,0,1-1-11.59,12,12,0,0,1,2.23-5.76,4.69,4.69,0,0,1,5.1-1.62,5.21,5.21,0,0,1,2.86,4c.19.81.29,1.64.41,2.46a24.14,24.14,0,0,0,.64,3A49.43,49.43,0,0,0,97,86.39,65.54,65.54,0,0,1,102.67,98C104,102,104.62,106.46,103.34,110.52Z"></path><circle class="cls-3" cx="80.83" cy="62.86" r="6.36"></circle><path class="cls-2" d="M97.44,49.13A4.41,4.41,0,1,1,93,44.72,4.4,4.4,0,0,1,97.44,49.13Z"></path><path class="cls-3" d="M125.35,70.67a4.41,4.41,0,1,1-4.41-4.41A4.42,4.42,0,0,1,125.35,70.67Z"></path><path class="cls-3" d="M182.49,49.13a4.41,4.41,0,1,1-4.41-4.41A4.41,4.41,0,0,1,182.49,49.13Z"></path><path class="cls-1" d="M182.81,39.71a4.41,4.41,0,1,1-4.41-4.41A4.41,4.41,0,0,1,182.81,39.71Z"></path><path class="cls-1" d="M162,53.54a4.41,4.41,0,1,1-4.41-4.41A4.42,4.42,0,0,1,162,53.54Z"></path><path class="cls-1" d="M126.07,60.7a4.41,4.41,0,1,1-4.4-4.41A4.41,4.41,0,0,1,126.07,60.7Z"></path><path class="cls-10" d="M72.38,75a13.42,13.42,0,0,0-.06,5.32,29.88,29.88,0,0,0,1.82,5.3c1.36,3.39,2.58,7.58.51,11a5.67,5.67,0,0,1-5.28,2.62.9.9,0,0,1-1.56.69c-.49-.58-1-1.19-1.41-1.82a31.63,31.63,0,0,1-5.67-17.59A32.62,32.62,0,0,1,61.88,71a25.63,25.63,0,0,1,4-8.59,10.44,10.44,0,0,1,3.78-3.25A6.06,6.06,0,0,1,74,58.87a5.39,5.39,0,0,1,3.14,2.31,5.12,5.12,0,0,1,.25,4.65,23.94,23.94,0,0,1-2.92,4.39A12.75,12.75,0,0,0,72.38,75Z"></path><path class="cls-10" d="M96.89,103.74c-.49,3.37-2.94,5.71-5.34,7.71-2.57,2.14-5.32,4.34-8.78,4.1-3.31-.22-6.21-2.21-8.81-4.21s-5.39-4.14-7.27-7a11,11,0,0,1-1.53-9.43.87.87,0,0,1,1-.62,1,1,0,0,1,.27.15,26.21,26.21,0,0,1,5.14-8.06c2.23-2.2,3.81-3.44,6.92-3.41s7.11,1.32,9.31,3.43a33.73,33.73,0,0,1,3,3.39C92,91.09,93,92.43,94,93.85,96,96.71,97.42,100.15,96.89,103.74Z"></path><path class="cls-12" d="M90.9,92.57c-1.17-1.6-2.44-3.16-3.76-4.64A18.07,18.07,0,0,0,83,84.3,9.22,9.22,0,0,0,77.65,83a11.21,11.21,0,0,0-5.35,1.87c-3.78,2.46-5.87,6.58-7.81,10.5a.82.82,0,0,0,.29,1.11.81.81,0,0,0,1.1-.29c1.6-3.24,3.25-6.64,6-9,2.49-2.14,6-3.32,9.14-2A12.48,12.48,0,0,1,85,88a52.47,52.47,0,0,1,3.45,4C90.8,95,93,98.3,93.32,102.12a8.79,8.79,0,0,1-1.2,5.4,6.58,6.58,0,0,1-3.78,3,.81.81,0,0,0,.43,1.56c3.54-1,5.77-4.39,6.14-7.92C95.35,99.89,93.33,95.88,90.9,92.57Z"></path><path class="cls-12" d="M88.5,110.41l-.25-.07-.11,0-.07,0-.12-.06-.23-.14-.09-.06-.16-.14-.19-.2-.07-.08s0-.06,0-.06a.75.75,0,0,1-.07-.12,1.07,1.07,0,0,1-.13-.21,1.24,1.24,0,0,1-.1-.2s0-.07,0-.11a3.69,3.69,0,0,1-.11-.45.49.49,0,0,1,0-.12,1.13,1.13,0,0,1,0-.26.81.81,0,1,0-1.62,0,4,4,0,0,0,3,3.9.82.82,0,0,0,1-.56A.83.83,0,0,0,88.5,110.41Z"></path><path class="cls-12" d="M90,102.59a.82.82,0,0,0-1.14,0,24.39,24.39,0,0,0-5.81,7.2c-.48.92.91,1.74,1.4.82A23,23,0,0,1,90,103.73.81.81,0,0,0,90,102.59Z"></path><path class="cls-12" d="M89.41,92a.83.83,0,0,0-1.1-.29A31.73,31.73,0,0,0,74.1,104.58a.81.81,0,0,0,1.4.82,30,30,0,0,1,10-10.34,31.34,31.34,0,0,1,3.66-2A.82.82,0,0,0,89.41,92Z"></path><path class="cls-12" d="M85.31,86.92a.82.82,0,0,0-1-.56,22.43,22.43,0,0,0-13.43,8.22,21.58,21.58,0,0,0-2.42,3.84.82.82,0,0,0,.29,1.1.8.8,0,0,0,1.1-.29A21,21,0,0,1,80.6,89.14a20.63,20.63,0,0,1,4.15-1.23A.8.8,0,0,0,85.31,86.92Z"></path><path class="cls-12" d="M75,70.05c1.14-2.22,2.77-4.26,2.83-6.87a4.78,4.78,0,0,0-3.76-4.84c-4.75-1.13-8.56,3.55-10.58,7.22a27.85,27.85,0,0,0-3.23,13.63A48.67,48.67,0,0,0,63.4,94.82c.22.62.45,1.24.68,1.85a.81.81,0,0,0,1.56-.43A53.12,53.12,0,0,1,62,81.53a28,28,0,0,1,2-13.27,20.56,20.56,0,0,1,3.48-5.53c1.33-1.48,3.1-2.95,5.2-2.95a4.06,4.06,0,0,1,2.41.74,3,3,0,0,1,1.16,2.4c.07,2.37-1.57,4.31-2.6,6.31A16.22,16.22,0,0,0,73,82.5c.22.54.46,1.06.73,1.58.48.92,1.87.1,1.39-.82A14.54,14.54,0,0,1,75,70.05Z"></path><path class="cls-12" d="M70.28,115.15A91.13,91.13,0,0,1,65.87,96a.84.84,0,0,0-.81-.81.81.81,0,0,0-.81.81,92.76,92.76,0,0,0,3.11,15.31c.42,1.44.87,2.86,1.36,4.27a.81.81,0,0,0,1.56-.43Z"></path><path class="cls-4" d="M95.19,169.63c-1.35,11.92-2.42,21.55-2.42,21.55l-49-1.52s-3.69-3.47,1.82-18.22c1.25-3.38,3.28-8.41,5.65-14.17Z"></path><path class="cls-6" d="M96.09,161.78c-.12,1.05-.24,2.1-.36,3.13-.06.55-.12,1.08-.18,1.62-.12,1.05-.24,2.08-.36,3.1l-44-12.36,1.67-4c.2-.49.41-1,.62-1.48s.48-1.17.73-1.76Z"></path><path class="cls-6" d="M100,142.66q-.59,4.36-1.14,8.75Q97.57,162,96.5,172.6t-1.85,21.25c-.08,1-1.69,1-1.62-.06q.45-6,1-12,.95-10.63,2.15-21.22,1-8.61,2.14-17.18Z"></path><path class="cls-6" d="M152.63,233.08l-60.49-3.23c-4,0-8.5-3.28-9.93-7.34L62.56,179.18c-2.53-6.61,3.93-10.57,8-10.57h62.58c4,0,8.5,3.28,9.93,7.34l16.42,46.56C160.9,226.57,158.31,233.08,152.63,233.08Z"></path><path class="cls-13" d="M150.37,235.34l-60.49-3.23c-4,0-8.5-3.28-9.93-7.34L60.3,181.44c-2.53-6.61,3.93-10.57,8-10.57h62.58c4,0,8.5,3.28,9.93,7.34l16.42,46.56C158.64,228.83,156.05,235.34,150.37,235.34Z"></path><path class="cls-13" d="M149.23,235.34H86.65c-4.05,0-8.5-3.28-9.93-7.34L60.3,181.44c-1.43-4.06.7-7.34,4.75-7.34h62.58c4.05,0,8.5,3.28,9.93,7.34L154,228C155.41,232.06,153.28,235.34,149.23,235.34Z"></path><path class="cls-6" d="M114.66,206.4l-3.45,5.32c-.72,1.12-2.52,1.12-4,0L100,206.4c-1.5-1.11-2.14-2.92-1.42-4l3.44-5.32c.73-1.12,2.53-1.12,4,0l7.2,5.32C114.74,203.48,115.38,205.29,114.66,206.4Z"></path><path class="cls-13" d="M181,241.75H89.87a5.88,5.88,0,0,1,0-11.75H181a5.88,5.88,0,1,1,0,11.75Z"></path><path class="cls-6" d="M217.79,132.6a46.2,46.2,0,0,1-10.12,11A44.09,44.09,0,0,1,180,153a55.32,55.32,0,0,1-10.06-.95c-8.62-1.58-15.35-6.91-19.45-15.42a39.23,39.23,0,0,1-2.55-6.94l4.1-.16,2.89-.08a31.46,31.46,0,0,0,1.75,4.41c3.18,6.46,8.05,10.34,14.49,11.53,12.43,2.28,23.24-.05,32.13-6.92a40.08,40.08,0,0,0,7-6.93c1.33.15,2.61.32,3.85.49S216.59,132.41,217.79,132.6Z"></path><path class="cls-13" d="M240.49,31.81v.06H131.11v-.06a9.91,9.91,0,0,1,9.91-9.9h89.57A9.9,9.9,0,0,1,240.49,31.81Z"></path><path class="cls-13" d="M127.91,30.69v1.18H72.15V30.69a8.78,8.78,0,0,1,8.78-8.78h38.2A8.78,8.78,0,0,1,127.91,30.69Z"></path><path class="cls-1" d="M28,198.06H60a2.5,2.5,0,0,1,2.5,2.5v33a7.73,7.73,0,0,1-7.73,7.73H33.24a7.73,7.73,0,0,1-7.73-7.73v-33A2.5,2.5,0,0,1,28,198.06Z"></path><circle class="cls-6" cx="50.05" cy="219.27" r="8.18" transform="translate(-140.38 99.62) rotate(-45)"></circle><path class="cls-1" d="M26.29,205.6a12.28,12.28,0,1,0,12.28,12.28A12.27,12.27,0,0,0,26.29,205.6Zm0,19.06a6.79,6.79,0,1,1,6.79-6.78A6.78,6.78,0,0,1,26.29,224.66Z"></path></svg> 